<?xml version="1.0" encoding="UTF-8" standalone="no"?>
<!DOCTYPE svg PUBLIC "-//W3C//DTD SVG 1.0//EN" "http://www.w3.org/TR/2001/PR-SVG-20010719/DTD/svg10.dtd">
<svg width="52cm" height="32cm" viewBox="23 26 1025 627" xmlns="http://www.w3.org/2000/svg" xmlns:xlink="http://www.w3.org/1999/xlink">
  <g>
    <rect style="fill: #ffffff" x="214" y="159" width="118.4" height="18"/>
    <rect style="fill: none; fill-opacity:0; stroke-width: 2; stroke: #000000" x="214" y="159" width="118.4" height="18"/>
    <text font-size="11.2" style="fill: #000000;text-anchor:middle;font-family:sans-serif;font-style:normal;font-weight:700" x="273.2" y="173">Client</text>
    <rect style="fill: #ffffff" x="214" y="177" width="118.4" height="100"/>
    <rect style="fill: none; fill-opacity:0; stroke-width: 2; stroke: #000000" x="214" y="177" width="118.4" height="100"/>
    <polygon style="fill: #000000" points="217,187 219,190 221,187 219,184 "/>
    <text font-size="12.8" style="fill: #000000;text-anchor:start;font-family:monospace;font-style:normal;font-weight:700" x="223" y="193">clientID</text>
    <ellipse style="fill: none; fill-opacity:0; stroke-width: 0.2; stroke: #000000" cx="219" cy="203" rx="2" ry="2"/>
    <text font-size="12.8" style="fill: #000000;text-anchor:start;font-family:monospace;font-style:normal;font-weight:normal" x="223" y="209">name</text>
    <ellipse style="fill: none; fill-opacity:0; stroke-width: 0.2; stroke: #000000" cx="219" cy="219" rx="2" ry="2"/>
    <text font-size="12.8" style="fill: #000000;text-anchor:start;font-family:monospace;font-style:normal;font-weight:normal" x="223" y="225">company_name</text>
    <ellipse style="fill: none; fill-opacity:0; stroke-width: 0.2; stroke: #000000" cx="219" cy="235" rx="2" ry="2"/>
    <text font-size="12.8" style="fill: #000000;text-anchor:start;font-family:monospace;font-style:normal;font-weight:normal" x="223" y="241">adress</text>
    <ellipse style="fill: none; fill-opacity:0; stroke-width: 0.2; stroke: #000000" cx="219" cy="251" rx="2" ry="2"/>
    <text font-size="12.8" style="fill: #000000;text-anchor:start;font-family:monospace;font-style:normal;font-weight:normal" x="223" y="257">phone_number</text>
    <ellipse style="fill: none; fill-opacity:0; stroke-width: 0.2; stroke: #000000" cx="219" cy="267" rx="2" ry="2"/>
    <text font-size="12.8" style="fill: #000000;text-anchor:start;font-family:monospace;font-style:normal;font-weight:normal" x="223" y="273">bank_account</text>
  </g>
  <g>
    <rect style="fill: #ffffff" x="423" y="26" width="126.1" height="18"/>
    <rect style="fill: none; fill-opacity:0; stroke-width: 2; stroke: #000000" x="423" y="26" width="126.1" height="18"/>
    <text font-size="11.2" style="fill: #000000;text-anchor:middle;font-family:sans-serif;font-style:normal;font-weight:700" x="486.05" y="40">Employee</text>
    <rect style="fill: #ffffff" x="423" y="44" width="126.1" height="116"/>
    <rect style="fill: none; fill-opacity:0; stroke-width: 2; stroke: #000000" x="423" y="44" width="126.1" height="116"/>
    <polygon style="fill: #000000" points="426,54 428,57 430,54 428,51 "/>
    <text font-size="12.8" style="fill: #000000;text-anchor:start;font-family:monospace;font-style:normal;font-weight:700" x="432" y="60">employeeID</text>
    <ellipse style="fill: none; fill-opacity:0; stroke-width: 0.2; stroke: #000000" cx="428" cy="70" rx="2" ry="2"/>
    <text font-size="12.8" style="fill: #000000;text-anchor:start;font-family:monospace;font-style:normal;font-weight:normal" x="432" y="76">name</text>
    <ellipse style="fill: none; fill-opacity:0; stroke-width: 0.2; stroke: #000000" cx="428" cy="86" rx="2" ry="2"/>
    <text font-size="12.8" style="fill: #000000;text-anchor:start;font-family:monospace;font-style:normal;font-weight:normal" x="432" y="92">position</text>
    <ellipse style="fill: none; fill-opacity:0; stroke-width: 0.2; stroke: #000000" cx="428" cy="102" rx="2" ry="2"/>
    <text font-size="12.8" style="fill: #000000;text-anchor:start;font-family:monospace;font-style:normal;font-weight:normal" x="432" y="108">adress</text>
    <ellipse style="fill: none; fill-opacity:0; stroke-width: 0.2; stroke: #000000" cx="428" cy="118" rx="2" ry="2"/>
    <text font-size="12.8" style="fill: #000000;text-anchor:start;font-family:monospace;font-style:normal;font-weight:normal" x="432" y="124">phone_number</text>
    <ellipse style="fill: none; fill-opacity:0; stroke-width: 0.2; stroke: #000000" cx="428" cy="134" rx="2" ry="2"/>
    <text font-size="12.8" style="fill: #000000;text-anchor:start;font-family:monospace;font-style:normal;font-weight:normal" x="432" y="140">email_adress</text>
    <ellipse style="fill: none; fill-opacity:0; stroke-width: 0.2; stroke: #000000" cx="428" cy="150" rx="2" ry="2"/>
    <text font-size="12.8" style="fill: #000000;text-anchor:start;font-family:monospace;font-style:normal;font-weight:normal" x="432" y="156">cost_per_hour</text>
  </g>
  <g>
    <rect style="fill: #ffffff" x="423" y="354.5" width="126.1" height="18"/>
    <rect style="fill: none; fill-opacity:0; stroke-width: 2; stroke: #000000" x="423" y="354.5" width="126.1" height="18"/>
    <text font-size="11.2" style="fill: #000000;text-anchor:middle;font-family:sans-serif;font-style:normal;font-weight:700" x="486.05" y="368.5">Reservation</text>
    <rect style="fill: #ffffff" x="423" y="372.5" width="126.1" height="68"/>
    <rect style="fill: none; fill-opacity:0; stroke-width: 2; stroke: #000000" x="423" y="372.5" width="126.1" height="68"/>
    <polygon style="fill: #000000" points="426,382.5 428,385.5 430,382.5 428,379.5 "/>
    <text font-size="12.8" style="fill: #000000;text-anchor:start;font-family:monospace;font-style:normal;font-weight:700" x="432" y="388.5">reservationID</text>
    <ellipse style="fill: none; fill-opacity:0; stroke-width: 0.2; stroke: #000000" cx="428" cy="398.5" rx="2" ry="2"/>
    <text font-size="12.8" style="fill: #000000;text-anchor:start;font-family:monospace;font-style:normal;font-weight:normal" x="432" y="404.5">from</text>
    <ellipse style="fill: none; fill-opacity:0; stroke-width: 0.2; stroke: #000000" cx="428" cy="414.5" rx="2" ry="2"/>
    <text font-size="12.8" style="fill: #000000;text-anchor:start;font-family:monospace;font-style:normal;font-weight:normal" x="432" y="420.5">to</text>
    <ellipse style="fill: none; fill-opacity:0; stroke-width: 0.2; stroke: #000000" cx="428" cy="430.5" rx="2" ry="2"/>
    <text font-size="12.8" style="fill: #000000;text-anchor:start;font-family:monospace;font-style:normal;font-weight:normal" x="432" y="436.5">cost</text>
  </g>
  <g>
    <rect style="fill: #ffffff" x="690" y="353.5" width="132.2" height="18"/>
    <rect style="fill: none; fill-opacity:0; stroke-width: 2; stroke: #000000" x="690" y="353.5" width="132.2" height="18"/>
    <text font-size="11.2" style="fill: #000000;text-anchor:middle;font-family:sans-serif;font-style:normal;font-weight:700" x="756.1" y="367.5">&lt;&lt;weak&gt;&gt;Damage</text>
    <rect style="fill: #ffffff" x="690" y="371.5" width="132.2" height="68"/>
    <rect style="fill: none; fill-opacity:0; stroke-width: 2; stroke: #000000" x="690" y="371.5" width="132.2" height="68"/>
    <polygon style="fill: #000000" points="693,381.5 695,384.5 697,381.5 695,378.5 "/>
    <text font-size="12.8" style="fill: #000000;text-anchor:start;font-family:monospace;font-style:normal;font-weight:700" x="699" y="387.5">reservationID</text>
    <polygon style="fill: #000000" points="693,397.5 695,400.5 697,397.5 695,394.5 "/>
    <text font-size="12.8" style="fill: #000000;text-anchor:start;font-family:monospace;font-style:normal;font-weight:700" x="699" y="403.5">damageID</text>
    <ellipse style="fill: none; fill-opacity:0; stroke-width: 0.2; stroke: #000000" cx="695" cy="413.5" rx="2" ry="2"/>
    <text font-size="12.8" style="fill: #000000;text-anchor:start;font-family:monospace;font-style:normal;font-weight:normal" x="699" y="419.5">amount</text>
    <ellipse style="fill: none; fill-opacity:0; stroke-width: 0.2; stroke: #000000" cx="695" cy="429.5" rx="2" ry="2"/>
    <text font-size="12.8" style="fill: #000000;text-anchor:start;font-family:monospace;font-style:normal;font-weight:normal" x="699" y="435.5">date_paid</text>
  </g>
  <g>
    <rect style="fill: #ffffff" x="921" y="353.5" width="126.1" height="18"/>
    <rect style="fill: none; fill-opacity:0; stroke-width: 2; stroke: #000000" x="921" y="353.5" width="126.1" height="18"/>
    <text font-size="11.2" style="fill: #000000;text-anchor:middle;font-family:sans-serif;font-style:normal;font-weight:700" x="984.05" y="367.5">Damage type</text>
    <rect style="fill: #ffffff" x="921" y="371.5" width="126.1" height="36"/>
    <rect style="fill: none; fill-opacity:0; stroke-width: 2; stroke: #000000" x="921" y="371.5" width="126.1" height="36"/>
    <polygon style="fill: #000000" points="924,381.5 926,384.5 928,381.5 926,378.5 "/>
    <text font-size="12.8" style="fill: #000000;text-anchor:start;font-family:monospace;font-style:normal;font-weight:700" x="930" y="387.5">damage_typeID</text>
    <ellipse style="fill: none; fill-opacity:0; stroke-width: 0.2; stroke: #000000" cx="926" cy="397.5" rx="2" ry="2"/>
    <text font-size="12.8" style="fill: #000000;text-anchor:start;font-family:monospace;font-style:normal;font-weight:normal" x="930" y="403.5">name</text>
  </g>
  <g>
    <polyline style="fill: none; fill-opacity:0; stroke-width: 2; stroke: #000000" points="549.1,363.5 549.1,362.5 690,362.5 "/>
    <text font-size="11.2" style="fill: #000000;text-anchor:start;font-family:monospace;font-style:normal;font-weight:normal" x="553.6" y="359">1</text>
    <text font-size="11.2" style="fill: #000000;text-anchor:end;font-family:monospace;font-style:normal;font-weight:normal" x="685.5" y="358">0..n</text>
  </g>
  <g>
    <polyline style="fill: none; fill-opacity:0; stroke-width: 2; stroke: #000000" points="822.2,362.5 866.95,362.5 866.95,362.5 921,362.5 "/>
    <text font-size="11.2" style="fill: #000000;text-anchor:start;font-family:monospace;font-style:normal;font-weight:normal" x="826.7" y="358">0..n</text>
    <text font-size="11.2" style="fill: #000000;text-anchor:end;font-family:monospace;font-style:normal;font-weight:normal" x="916.5" y="358">1</text>
  </g>
  <g>
    <rect style="fill: #ffffff" x="693" y="518.5" width="126.1" height="18"/>
    <rect style="fill: none; fill-opacity:0; stroke-width: 2; stroke: #000000" x="693" y="518.5" width="126.1" height="18"/>
    <text font-size="11.2" style="fill: #000000;text-anchor:middle;font-family:sans-serif;font-style:normal;font-weight:700" x="756.05" y="532.5">Equipment</text>
    <rect style="fill: #ffffff" x="693" y="536.5" width="126.1" height="116"/>
    <rect style="fill: none; fill-opacity:0; stroke-width: 2; stroke: #000000" x="693" y="536.5" width="126.1" height="116"/>
    <polygon style="fill: #000000" points="696,546.5 698,549.5 700,546.5 698,543.5 "/>
    <text font-size="12.8" style="fill: #000000;text-anchor:start;font-family:monospace;font-style:normal;font-weight:700" x="702" y="552.5">equipmentID</text>
    <ellipse style="fill: none; fill-opacity:0; stroke-width: 0.2; stroke: #000000" cx="698" cy="562.5" rx="2" ry="2"/>
    <text font-size="12.8" style="fill: #000000;text-anchor:start;font-family:monospace;font-style:normal;font-weight:normal" x="702" y="568.5">name</text>
    <ellipse style="fill: none; fill-opacity:0; stroke-width: 0.2; stroke: #000000" cx="698" cy="578.5" rx="2" ry="2"/>
    <text font-size="12.8" style="fill: #000000;text-anchor:start;font-family:monospace;font-style:normal;font-weight:normal" x="702" y="584.5">description</text>
    <ellipse style="fill: none; fill-opacity:0; stroke-width: 0.2; stroke: #000000" cx="698" cy="594.5" rx="2" ry="2"/>
    <text font-size="12.8" style="fill: #000000;text-anchor:start;font-family:monospace;font-style:normal;font-weight:normal" x="702" y="600.5">type</text>
    <ellipse style="fill: none; fill-opacity:0; stroke-width: 0.2; stroke: #000000" cx="698" cy="610.5" rx="2" ry="2"/>
    <text font-size="12.8" style="fill: #000000;text-anchor:start;font-family:monospace;font-style:normal;font-weight:normal" x="702" y="616.5">age</text>
    <ellipse style="fill: none; fill-opacity:0; stroke-width: 0.2; stroke: #000000" cx="698" cy="626.5" rx="2" ry="2"/>
    <text font-size="12.8" style="fill: #000000;text-anchor:start;font-family:monospace;font-style:normal;font-weight:normal" x="702" y="632.5">condition</text>
    <ellipse style="fill: none; fill-opacity:0; stroke-width: 0.2; stroke: #000000" cx="698" cy="642.5" rx="2" ry="2"/>
    <text font-size="12.8" style="fill: #000000;text-anchor:start;font-family:monospace;font-style:normal;font-weight:normal" x="702" y="648.5">cost_per_hour</text>
  </g>
  <g>
    <polyline style="fill: none; fill-opacity:0; stroke-width: 2; stroke: #000000" points="756.1,439.5 756.1,479 756.05,479 756.05,518.5 "/>
    <text font-size="11.2" style="fill: #000000;text-anchor:start;font-family:monospace;font-style:normal;font-weight:normal" x="760.6" y="453.5">0..n</text>
    <text font-size="11.2" style="fill: #000000;text-anchor:start;font-family:monospace;font-style:normal;font-weight:normal" x="760.55" y="514">1</text>
  </g>
  <g>
    <rect style="fill: #ffffff" x="574" y="489.5" width="65.75" height="18"/>
    <rect style="fill: none; fill-opacity:0; stroke-width: 2; stroke: #000000" x="574" y="489.5" width="65.75" height="18"/>
    <text font-size="11.2" style="fill: #000000;text-anchor:middle;font-family:sans-serif;font-style:normal;font-weight:700" x="606.875" y="503.5">reserved</text>
    <rect style="fill: #ffffff" x="574" y="507.5" width="65.75" height="36"/>
    <rect style="fill: none; fill-opacity:0; stroke-width: 2; stroke: #000000" x="574" y="507.5" width="65.75" height="36"/>
    <ellipse style="fill: none; fill-opacity:0; stroke-width: 0.2; stroke: #000000" cx="579" cy="517.5" rx="2" ry="2"/>
    <text font-size="12.8" style="fill: #000000;text-anchor:start;font-family:monospace;font-style:normal;font-weight:normal" x="583" y="523.5">from</text>
    <ellipse style="fill: none; fill-opacity:0; stroke-width: 0.2; stroke: #000000" cx="579" cy="533.5" rx="2" ry="2"/>
    <text font-size="12.8" style="fill: #000000;text-anchor:start;font-family:monospace;font-style:normal;font-weight:normal" x="583" y="539.5">to</text>
  </g>
  <g>
    <polyline style="fill: none; fill-opacity:0; stroke-width: 2; stroke: #000000" points="517.575,440.5 517.575,578.5 693,578.5 "/>
    <text font-size="11.2" style="fill: #000000;text-anchor:start;font-family:monospace;font-style:normal;font-weight:normal" x="522.075" y="454.5">1</text>
    <text font-size="11.2" style="fill: #000000;text-anchor:end;font-family:monospace;font-style:normal;font-weight:normal" x="688.5" y="574">0..n</text>
  </g>
  <polyline style="fill: none; fill-opacity:0; stroke-width: 2; stroke-dasharray: 10; stroke: #000000" points="517.575,440.5 517.575,498.5 574,498.5 "/>
  <g>
    <rect style="fill: #ffffff" x="555" y="244.75" width="65.75" height="18"/>
    <rect style="fill: none; fill-opacity:0; stroke-width: 2; stroke: #000000" x="555" y="244.75" width="65.75" height="18"/>
    <text font-size="11.2" style="fill: #000000;text-anchor:middle;font-family:sans-serif;font-style:normal;font-weight:700" x="587.875" y="258.75">reserved</text>
    <rect style="fill: #ffffff" x="555" y="262.75" width="65.75" height="36"/>
    <rect style="fill: none; fill-opacity:0; stroke-width: 2; stroke: #000000" x="555" y="262.75" width="65.75" height="36"/>
    <ellipse style="fill: none; fill-opacity:0; stroke-width: 0.2; stroke: #000000" cx="560" cy="272.75" rx="2" ry="2"/>
    <text font-size="12.8" style="fill: #000000;text-anchor:start;font-family:monospace;font-style:normal;font-weight:normal" x="564" y="278.75">from</text>
    <ellipse style="fill: none; fill-opacity:0; stroke-width: 0.2; stroke: #000000" cx="560" cy="288.75" rx="2" ry="2"/>
    <text font-size="12.8" style="fill: #000000;text-anchor:start;font-family:monospace;font-style:normal;font-weight:normal" x="564" y="294.75">to</text>
  </g>
  <g>
    <polyline style="fill: none; fill-opacity:0; stroke-width: 2; stroke: #000000" points="517.575,160 517.575,160 517.575,354.5 517.575,354.5 "/>
    <text font-size="11.2" style="fill: #000000;text-anchor:start;font-family:monospace;font-style:normal;font-weight:normal" x="522.075" y="174">0..n</text>
    <text font-size="11.2" style="fill: #000000;text-anchor:start;font-family:monospace;font-style:normal;font-weight:normal" x="522.075" y="350">1</text>
  </g>
  <polyline style="fill: none; fill-opacity:0; stroke-width: 2; stroke-dasharray: 10; stroke: #000000" points="517.575,160 517.575,253.75 555,253.75 "/>
  <g>
    <polyline style="fill: none; fill-opacity:0; stroke-width: 2; stroke: #000000" points="273.2,277 273.2,363.5 423,363.5 "/>
    <text font-size="11.2" style="fill: #000000;text-anchor:start;font-family:monospace;font-style:normal;font-weight:normal" x="277.7" y="291">1</text>
    <text font-size="11.2" style="fill: #000000;text-anchor:end;font-family:monospace;font-style:normal;font-weight:normal" x="418.5" y="359">0..n</text>
  </g>
  <g>
    <rect style="fill: #ffffff" x="220" y="502.75" width="126.1" height="18"/>
    <rect style="fill: none; fill-opacity:0; stroke-width: 2; stroke: #000000" x="220" y="502.75" width="126.1" height="18"/>
    <text font-size="11.2" style="fill: #000000;text-anchor:middle;font-family:sans-serif;font-style:normal;font-weight:700" x="283.05" y="516.75">&lt;&lt;weak&gt;&gt;Atelier</text>
    <rect style="fill: #ffffff" x="220" y="520.75" width="126.1" height="84"/>
    <rect style="fill: none; fill-opacity:0; stroke-width: 2; stroke: #000000" x="220" y="520.75" width="126.1" height="84"/>
    <polygon style="fill: #000000" points="223,530.75 225,533.75 227,530.75 225,527.75 "/>
    <text font-size="12.8" style="fill: #000000;text-anchor:start;font-family:monospace;font-style:normal;font-weight:700" x="229" y="536.75">studioID</text>
    <polygon style="fill: #000000" points="223,546.75 225,549.75 227,546.75 225,543.75 "/>
    <text font-size="12.8" style="fill: #000000;text-anchor:start;font-family:monospace;font-style:normal;font-weight:700" x="229" y="552.75">atelierID</text>
    <ellipse style="fill: none; fill-opacity:0; stroke-width: 0.2; stroke: #000000" cx="225" cy="562.75" rx="2" ry="2"/>
    <text font-size="12.8" style="fill: #000000;text-anchor:start;font-family:monospace;font-style:normal;font-weight:normal" x="229" y="568.75">name</text>
    <ellipse style="fill: none; fill-opacity:0; stroke-width: 0.2; stroke: #000000" cx="225" cy="578.75" rx="2" ry="2"/>
    <text font-size="12.8" style="fill: #000000;text-anchor:start;font-family:monospace;font-style:normal;font-weight:normal" x="229" y="584.75">area</text>
    <ellipse style="fill: none; fill-opacity:0; stroke-width: 0.2; stroke: #000000" cx="225" cy="594.75" rx="2" ry="2"/>
    <text font-size="12.8" style="fill: #000000;text-anchor:start;font-family:monospace;font-style:normal;font-weight:normal" x="229" y="600.75">cost_per_hour</text>
  </g>
  <g>
    <rect style="fill: #ffffff" x="23" y="502.75" width="87.6" height="18"/>
    <rect style="fill: none; fill-opacity:0; stroke-width: 2; stroke: #000000" x="23" y="502.75" width="87.6" height="18"/>
    <text font-size="11.2" style="fill: #000000;text-anchor:middle;font-family:sans-serif;font-style:normal;font-weight:700" x="66.8" y="516.75">Studio</text>
    <rect style="fill: #ffffff" x="23" y="520.75" width="87.6" height="36"/>
    <rect style="fill: none; fill-opacity:0; stroke-width: 2; stroke: #000000" x="23" y="520.75" width="87.6" height="36"/>
    <polygon style="fill: #000000" points="26,530.75 28,533.75 30,530.75 28,527.75 "/>
    <text font-size="12.8" style="fill: #000000;text-anchor:start;font-family:monospace;font-style:normal;font-weight:700" x="32" y="536.75">studioID</text>
    <ellipse style="fill: none; fill-opacity:0; stroke-width: 0.2; stroke: #000000" cx="28" cy="546.75" rx="2" ry="2"/>
    <text font-size="12.8" style="fill: #000000;text-anchor:start;font-family:monospace;font-style:normal;font-weight:normal" x="32" y="552.75">adress</text>
  </g>
  <g>
    <polyline style="fill: none; fill-opacity:0; stroke-width: 2; stroke: #000000" points="110.6,511.75 165.3,511.75 165.3,511.75 220,511.75 "/>
    <text font-size="11.2" style="fill: #000000;text-anchor:start;font-family:monospace;font-style:normal;font-weight:normal" x="115.1" y="507.25">1</text>
    <text font-size="11.2" style="fill: #000000;text-anchor:end;font-family:monospace;font-style:normal;font-weight:normal" x="215.5" y="507.25">1..n</text>
  </g>
  <g>
    <polyline style="fill: none; fill-opacity:0; stroke-width: 2; stroke: #000000" points="346.1,511.75 454.525,511.75 454.525,440.5 "/>
    <text font-size="11.2" style="fill: #000000;text-anchor:start;font-family:monospace;font-style:normal;font-weight:normal" x="350.6" y="507.25">1</text>
    <text font-size="11.2" style="fill: #000000;text-anchor:start;font-family:monospace;font-style:normal;font-weight:normal" x="459.025" y="454.5">1..n</text>
  </g>
  <g>
    <polyline style="fill: none; fill-opacity:0; stroke-width: 2; stroke: #000000" points="66.8,556.75 66.8,642.5 693,642.5 "/>
    <text font-size="11.2" style="fill: #000000;text-anchor:start;font-family:monospace;font-style:normal;font-weight:normal" x="71.3" y="570.75">1</text>
    <text font-size="11.2" style="fill: #000000;text-anchor:end;font-family:monospace;font-style:normal;font-weight:normal" x="688.5" y="638">0..n</text>
  </g>
  <g>
    <rect style="fill: #ffffff" x="363.77" y="243.322" width="57.8" height="18"/>
    <rect style="fill: none; fill-opacity:0; stroke-width: 2; stroke: #000000" x="363.77" y="243.322" width="57.8" height="18"/>
    <text font-size="11.2" style="fill: #000000;text-anchor:middle;font-family:sans-serif;font-style:normal;font-weight:700" x="392.67" y="257.322">notifies</text>
    <rect style="fill: #ffffff" x="363.77" y="261.322" width="57.8" height="20"/>
    <rect style="fill: none; fill-opacity:0; stroke-width: 2; stroke: #000000" x="363.77" y="261.322" width="57.8" height="20"/>
    <ellipse style="fill: none; fill-opacity:0; stroke-width: 0.2; stroke: #000000" cx="368.77" cy="271.322" rx="2" ry="2"/>
    <text font-size="12.8" style="fill: #000000;text-anchor:start;font-family:monospace;font-style:normal;font-weight:normal" x="372.77" y="277.322">text</text>
  </g>
  <polyline style="fill: none; fill-opacity:0; stroke-width: 2; stroke-dasharray: 10; stroke: #000000" points="421.57,252.322 454.526,252.322 454.526,160 "/>
  <g>
    <rect style="fill: #ffffff" x="666.444" y="237.3" width="57.8" height="18"/>
    <rect style="fill: none; fill-opacity:0; stroke-width: 2; stroke: #000000" x="666.444" y="237.3" width="57.8" height="18"/>
    <text font-size="11.2" style="fill: #000000;text-anchor:middle;font-family:sans-serif;font-style:normal;font-weight:700" x="695.344" y="251.3">notifies</text>
    <rect style="fill: #ffffff" x="666.444" y="255.3" width="57.8" height="20"/>
    <rect style="fill: none; fill-opacity:0; stroke-width: 2; stroke: #000000" x="666.444" y="255.3" width="57.8" height="20"/>
    <ellipse style="fill: none; fill-opacity:0; stroke-width: 0.2; stroke: #000000" cx="671.444" cy="265.3" rx="2" ry="2"/>
    <text font-size="12.8" style="fill: #000000;text-anchor:start;font-family:monospace;font-style:normal;font-weight:normal" x="675.444" y="271.3">text</text>
  </g>
  <g>
    <polyline style="fill: none; fill-opacity:0; stroke-width: 2; stroke: #000000" points="332.4,187 756.1,187 756.1,353.5 "/>
    <text font-size="11.2" style="fill: #000000;text-anchor:start;font-family:monospace;font-style:normal;font-weight:normal" x="336.9" y="182.5">1</text>
    <text font-size="11.2" style="fill: #000000;text-anchor:start;font-family:monospace;font-style:normal;font-weight:normal" x="760.6" y="349">0..n</text>
  </g>
  <polyline style="fill: none; fill-opacity:0; stroke-width: 2; stroke-dasharray: 10; stroke: #000000" points="332.4,187 695.344,187 695.344,237.3 "/>
  <g>
    <polyline style="fill: none; fill-opacity:0; stroke-width: 2; stroke: #000000" points="346.1,562.75 480.102,562.75 480.102,474.5 621.102,474.5 621.102,413.5 690,413.5 "/>
    <text font-size="11.2" style="fill: #000000;text-anchor:start;font-family:monospace;font-style:normal;font-weight:normal" x="350.6" y="558.25">1</text>
    <text font-size="11.2" style="fill: #000000;text-anchor:end;font-family:monospace;font-style:normal;font-weight:normal" x="685.5" y="409">0..n</text>
  </g>
  <text font-size="12.8" style="fill: #000000;text-anchor:start;font-family:sans-serif;font-style:normal;font-weight:normal" x="229" y="637">
    <tspan x="229" y="637">located in</tspan>
  </text>
  <text font-size="12.8" style="fill: #000000;text-anchor:start;font-family:sans-serif;font-style:normal;font-weight:normal" x="387" y="506">
    <tspan x="387" y="506">reserved</tspan>
  </text>
  <text font-size="12.8" style="fill: #000000;text-anchor:start;font-family:sans-serif;font-style:normal;font-weight:normal" x="295" y="345">
    <tspan x="295" y="345"></tspan>
  </text>
  <text font-size="12.8" style="fill: #000000;text-anchor:start;font-family:sans-serif;font-style:normal;font-weight:normal" x="303" y="359">
    <tspan x="303" y="359">owns</tspan>
  </text>
  <text font-size="12.8" style="fill: #000000;text-anchor:start;font-family:sans-serif;font-style:normal;font-weight:normal" x="868" y="358">
    <tspan x="868" y="358">is of  </tspan>
  </text>
  <text font-size="12.8" style="fill: #000000;text-anchor:start;font-family:sans-serif;font-style:normal;font-weight:normal" x="762" y="481">
    <tspan x="762" y="481">damaged</tspan>
  </text>
  <text font-size="12.8" style="fill: #000000;text-anchor:start;font-family:sans-serif;font-style:normal;font-weight:normal" x="388" y="558">
    <tspan x="388" y="558">damaged</tspan>
  </text>
  <text font-size="12.8" style="fill: #000000;text-anchor:start;font-family:sans-serif;font-style:normal;font-weight:normal" x="586" y="357">
    <tspan x="586" y="357">recorded</tspan>
  </text>
  <g>
    <polyline style="fill: none; fill-opacity:0; stroke-width: 2; stroke: #000000" points="454.525,160 454.525,160 454.525,354.5 454.525,354.5 "/>
    <text font-size="11.2" style="fill: #000000;text-anchor:start;font-family:monospace;font-style:normal;font-weight:normal" x="459.025" y="174">0..n</text>
    <text font-size="11.2" style="fill: #000000;text-anchor:start;font-family:monospace;font-style:normal;font-weight:normal" x="459.025" y="350">1</text>
  </g>
  <text font-size="12.8" style="fill: #000000;text-anchor:start;font-family:sans-serif;font-style:normal;font-weight:normal" x="148" y="506">
    <tspan x="148" y="506">has</tspan>
  </text>
</svg>
