<?xml version="1.0" encoding="UTF-8" standalone="no"?>
<!DOCTYPE svg PUBLIC "-//W3C//DTD SVG 1.0//EN" "http://www.w3.org/TR/2001/PR-SVG-20010719/DTD/svg10.dtd">
<svg width="41cm" height="48cm" viewBox="2 162 801 947" xmlns="http://www.w3.org/2000/svg" xmlns:xlink="http://www.w3.org/1999/xlink">
  <g>
    <rect style="fill: #5ac1e3" x="86.4852" y="163.806" width="630" height="906"/>
    <rect style="fill: none; fill-opacity:0; stroke-width: 2; stroke: #000000" x="86.4852" y="163.806" width="630" height="906"/>
  </g>
  <text font-size="12.8" style="fill: #000000;text-anchor:start;font-family:sans-serif;font-style:normal;font-weight:normal" x="-147" y="460">
    <tspan x="-147" y="460"></tspan>
  </text>
  <g>
    <ellipse style="fill: #ffffff" cx="34.1147" cy="880.634" rx="6" ry="6"/>
    <ellipse style="fill: none; fill-opacity:0; stroke-width: 2; stroke: #000000" cx="34.1147" cy="880.634" rx="6" ry="6"/>
    <line style="fill: none; fill-opacity:0; stroke-width: 2; stroke: #000000" x1="10.1147" y1="892.634" x2="58.1147" y2="892.634"/>
    <line style="fill: none; fill-opacity:0; stroke-width: 2; stroke: #000000" x1="34.1147" y1="886.634" x2="34.1147" y2="916.634"/>
    <line style="fill: none; fill-opacity:0; stroke-width: 2; stroke: #000000" x1="34.1147" y1="916.634" x2="10.1147" y2="942.634"/>
    <line style="fill: none; fill-opacity:0; stroke-width: 2; stroke: #000000" x1="34.1147" y1="916.634" x2="58.1147" y2="942.634"/>
    <text font-size="12.8" style="fill: #000000;text-anchor:middle;font-family:sans-serif;font-style:normal;font-weight:normal" x="34.1147" y="966.534">
      <tspan x="34.1147" y="966.534">Employee</tspan>
    </text>
  </g>
  <g>
    <ellipse style="fill: #ffffff" cx="34.1147" cy="436.806" rx="6" ry="6"/>
    <ellipse style="fill: none; fill-opacity:0; stroke-width: 2; stroke: #000000" cx="34.1147" cy="436.806" rx="6" ry="6"/>
    <line style="fill: none; fill-opacity:0; stroke-width: 2; stroke: #000000" x1="10.1147" y1="448.806" x2="58.1147" y2="448.806"/>
    <line style="fill: none; fill-opacity:0; stroke-width: 2; stroke: #000000" x1="34.1147" y1="442.806" x2="34.1147" y2="472.806"/>
    <line style="fill: none; fill-opacity:0; stroke-width: 2; stroke: #000000" x1="34.1147" y1="472.806" x2="10.1147" y2="498.806"/>
    <line style="fill: none; fill-opacity:0; stroke-width: 2; stroke: #000000" x1="34.1147" y1="472.806" x2="58.1147" y2="498.806"/>
    <text font-size="12.8" style="fill: #000000;text-anchor:middle;font-family:sans-serif;font-style:normal;font-weight:normal" x="34.1147" y="522.706">
      <tspan x="34.1147" y="522.706">Secretary</tspan>
    </text>
  </g>
  <text font-size="12.8" style="fill: #000000;text-anchor:start;font-family:sans-serif;font-style:normal;font-weight:normal" x="244.488" y="615.806">
    <tspan x="244.488" y="615.806"></tspan>
  </text>
  <g>
    <ellipse style="fill: #ffffff" cx="223.987" cy="854.806" rx="77.5" ry="32"/>
    <ellipse style="fill: none; fill-opacity:0; stroke-width: 2; stroke: #000000" cx="223.987" cy="854.806" rx="77.5" ry="32"/>
  </g>
  <text font-size="12.8" style="fill: #000000;text-anchor:start;font-family:sans-serif;font-style:normal;font-weight:normal" x="223.988" y="854.806">
    <tspan x="223.988" y="854.806"></tspan>
  </text>
  <text font-size="12.8" style="fill: #000000;text-anchor:middle;font-family:sans-serif;font-style:normal;font-weight:normal" x="223.988" y="851.256">
    <tspan x="223.988" y="851.256">Display my</tspan>
    <tspan x="223.988" y="867.256">reservations</tspan>
  </text>
  <g>
    <line style="fill: none; fill-opacity:0; stroke-width: 2; stroke: #000000" x1="59.1146" y1="916.634" x2="138.54" y2="860.43"/>
    <polygon style="fill: #000000" points="144.662,856.098 139.387,865.955 138.54,860.43 133.611,857.793 "/>
    <polygon style="fill: none; fill-opacity:0; stroke-width: 2; stroke: #000000" points="144.662,856.098 139.387,865.955 138.54,860.43 133.611,857.793 "/>
  </g>
  <g>
    <line style="fill: none; fill-opacity:0; stroke-width: 2; stroke: #000000" x1="59.1146" y1="472.806" x2="135.036" y2="445.23"/>
    <polygon style="fill: #000000" points="142.085,442.669 134.393,450.783 135.036,445.23 130.979,441.384 "/>
    <polygon style="fill: none; fill-opacity:0; stroke-width: 2; stroke: #000000" points="142.085,442.669 134.393,450.783 135.036,445.23 130.979,441.384 "/>
  </g>
  <g>
    <polyline style="fill: none; fill-opacity:0; stroke-width: 2; stroke: #000000" points="34.1147,843.391 34.1147,844.627 34.1147,528.813 34.1147,527.813 "/>
    <polygon style="fill: #ffffff" points="26.1147,843.391 34.1147,859.391 42.1147,843.391 "/>
    <polygon style="fill: none; fill-opacity:0; stroke-width: 2; stroke: #000000" points="26.1147,843.391 34.1147,859.391 42.1147,843.391 "/>
  </g>
  <g>
    <ellipse style="fill: #ffffff" cx="221.687" cy="441.906" rx="77.5" ry="32"/>
    <ellipse style="fill: none; fill-opacity:0; stroke-width: 2; stroke: #000000" cx="221.687" cy="441.906" rx="77.5" ry="32"/>
  </g>
  <text font-size="12.8" style="fill: #000000;text-anchor:middle;font-family:sans-serif;font-style:normal;font-weight:normal" x="221.688" y="438.356">
    <tspan x="221.688" y="438.356">Create</tspan>
    <tspan x="221.688" y="454.356">reservation</tspan>
  </text>
  <g>
    <ellipse style="fill: #ffffff" cx="217.687" cy="730.906" rx="77.5" ry="32"/>
    <ellipse style="fill: none; fill-opacity:0; stroke-width: 2; stroke: #000000" cx="217.687" cy="730.906" rx="77.5" ry="32"/>
  </g>
  <text font-size="12.8" style="fill: #000000;text-anchor:middle;font-family:sans-serif;font-style:normal;font-weight:normal" x="217.688" y="727.356">
    <tspan x="217.688" y="727.356">Cancel</tspan>
    <tspan x="217.688" y="743.356">reservation</tspan>
  </text>
  <g>
    <ellipse style="fill: #ffffff" cx="624.532" cy="596.692" rx="77.5" ry="32"/>
    <ellipse style="fill: none; fill-opacity:0; stroke-width: 2; stroke: #000000" cx="624.532" cy="596.692" rx="77.5" ry="32"/>
  </g>
  <text font-size="12.8" style="fill: #000000;text-anchor:middle;font-family:sans-serif;font-style:normal;font-weight:normal" x="624.532" y="593.142">
    <tspan x="624.532" y="593.142">Search</tspan>
    <tspan x="624.532" y="609.142">reservation</tspan>
  </text>
  <g>
    <ellipse style="fill: #ffffff" cx="219.087" cy="537.556" rx="77.5" ry="32"/>
    <ellipse style="fill: none; fill-opacity:0; stroke-width: 2; stroke: #000000" cx="219.087" cy="537.556" rx="77.5" ry="32"/>
  </g>
  <text font-size="12.8" style="fill: #000000;text-anchor:middle;font-family:sans-serif;font-style:normal;font-weight:normal" x="219.088" y="534.006">
    <tspan x="219.088" y="534.006">Edit</tspan>
    <tspan x="219.088" y="550.006">reservation</tspan>
  </text>
  <g>
    <ellipse style="fill: #ffffff" cx="353.088" cy="625.556" rx="77.5" ry="32"/>
    <ellipse style="fill: none; fill-opacity:0; stroke-width: 2; stroke: #000000" cx="353.088" cy="625.556" rx="77.5" ry="32"/>
  </g>
  <text font-size="12.8" style="fill: #000000;text-anchor:middle;font-family:sans-serif;font-style:normal;font-weight:normal" x="353.088" y="621.82">
    <tspan x="353.088" y="621.82">Record</tspan>
    <tspan x="353.088" y="637.82">damage</tspan>
  </text>
  <g>
    <line style="fill: none; fill-opacity:0; stroke-width: 2; stroke: #000000" x1="59.1146" y1="472.806" x2="133.929" y2="531.544"/>
    <polygon style="fill: #000000" points="139.828,536.175 128.875,533.933 133.929,531.544 135.051,526.067 "/>
    <polygon style="fill: none; fill-opacity:0; stroke-width: 2; stroke: #000000" points="139.828,536.175 128.875,533.933 133.929,531.544 135.051,526.067 "/>
  </g>
  <g>
    <line style="fill: none; fill-opacity:0; stroke-width: 2; stroke: #000000" x1="59.1146" y1="472.806" x2="137.27" y2="721.617"/>
    <polygon style="fill: #000000" points="139.517,728.773 131.75,720.731 137.27,721.617 141.291,717.734 "/>
    <polygon style="fill: none; fill-opacity:0; stroke-width: 2; stroke: #000000" points="139.517,728.773 131.75,720.731 137.27,721.617 141.291,717.734 "/>
  </g>
  <g>
    <ellipse style="fill: #ffffff" cx="775.254" cy="919.39" rx="6" ry="6"/>
    <ellipse style="fill: none; fill-opacity:0; stroke-width: 2; stroke: #000000" cx="775.254" cy="919.39" rx="6" ry="6"/>
    <line style="fill: none; fill-opacity:0; stroke-width: 2; stroke: #000000" x1="751.254" y1="931.39" x2="799.254" y2="931.39"/>
    <line style="fill: none; fill-opacity:0; stroke-width: 2; stroke: #000000" x1="775.254" y1="925.39" x2="775.254" y2="955.39"/>
    <line style="fill: none; fill-opacity:0; stroke-width: 2; stroke: #000000" x1="775.254" y1="955.39" x2="751.254" y2="981.39"/>
    <line style="fill: none; fill-opacity:0; stroke-width: 2; stroke: #000000" x1="775.254" y1="955.39" x2="799.254" y2="981.39"/>
    <text font-size="12.8" style="fill: #000000;text-anchor:middle;font-family:sans-serif;font-style:normal;font-weight:normal" x="775.254" y="1005.29">
      <tspan x="775.254" y="1005.29">Manager</tspan>
    </text>
  </g>
  <g>
    <ellipse style="fill: #ffffff" cx="601.508" cy="956.018" rx="77.5" ry="32"/>
    <ellipse style="fill: none; fill-opacity:0; stroke-width: 2; stroke: #000000" cx="601.508" cy="956.018" rx="77.5" ry="32"/>
  </g>
  <text font-size="12.8" style="fill: #000000;text-anchor:middle;font-family:sans-serif;font-style:normal;font-weight:normal" x="601.508" y="952.468">
    <tspan x="601.508" y="952.468">Manage</tspan>
    <tspan x="601.508" y="968.468">employees</tspan>
  </text>
  <g>
    <line style="fill: none; fill-opacity:0; stroke-width: 2; stroke: #000000" x1="750.254" y1="955.39" x2="688.744" y2="955.932"/>
    <polygon style="fill: #000000" points="681.244,955.998 691.2,950.91 688.744,955.932 691.288,960.91 "/>
    <polygon style="fill: none; fill-opacity:0; stroke-width: 2; stroke: #000000" points="681.244,955.998 691.2,950.91 688.744,955.932 691.288,960.91 "/>
  </g>
  <g>
    <ellipse style="fill: #ffffff" cx="227.077" cy="959.606" rx="77.5" ry="32"/>
    <ellipse style="fill: none; fill-opacity:0; stroke-width: 2; stroke: #000000" cx="227.077" cy="959.606" rx="77.5" ry="32"/>
  </g>
  <text font-size="12.8" style="fill: #000000;text-anchor:middle;font-family:sans-serif;font-style:normal;font-weight:normal" x="227.078" y="956.056">
    <tspan x="227.078" y="956.056">Login</tspan>
    <tspan x="227.078" y="972.056">Logout</tspan>
  </text>
  <g>
    <line style="fill: none; fill-opacity:0; stroke-width: 2; stroke: #000000" x1="59.1146" y1="916.634" x2="140.783" y2="955.428"/>
    <polygon style="fill: #000000" points="147.557,958.647 136.379,958.872 140.783,955.428 140.67,949.839 "/>
    <polygon style="fill: none; fill-opacity:0; stroke-width: 2; stroke: #000000" points="147.557,958.647 136.379,958.872 140.783,955.428 140.67,949.839 "/>
  </g>
  <g>
    <polyline style="fill: none; fill-opacity:0; stroke-width: 2; stroke: #000000" points="34.1146,988.87 34.1146,1092.81 775.254,1092.81 775.254,1009.39 "/>
    <polygon style="fill: #ffffff" points="42.1146,988.87 34.1146,972.87 26.1146,988.87 "/>
    <polygon style="fill: none; fill-opacity:0; stroke-width: 2; stroke: #000000" points="42.1146,988.87 34.1146,972.87 26.1146,988.87 "/>
  </g>
  <g>
    <line style="fill: none; fill-opacity:0; stroke-width: 2; stroke-dasharray: 10; stroke: #000000" x1="298.286" y1="602.928" x2="223.209" y2="571.293"/>
    <polyline style="fill: none; fill-opacity:0; stroke-width: 2; stroke: #000000" points="232.305,569.7 221.149,570.424 228.422,578.915 "/>
  </g>
  <g>
    <line style="fill: none; fill-opacity:0; stroke-width: 2; stroke-dasharray: 10; stroke: #000000" x1="296.588" y1="537.556" x2="542.68" y2="595.664"/>
    <polyline style="fill: none; fill-opacity:0; stroke-width: 2; stroke: #000000" points="533.974,598.746 544.856,596.178 536.272,589.014 "/>
  </g>
  <g>
    <line style="fill: none; fill-opacity:0; stroke-width: 2; stroke-dasharray: 10; stroke: #000000" x1="299.188" y1="441.906" x2="565.714" y2="572.101"/>
    <polyline style="fill: none; fill-opacity:0; stroke-width: 2; stroke: #000000" points="556.543,573.186 567.723,573.083 560.932,564.201 "/>
  </g>
  <g>
    <line style="fill: none; fill-opacity:0; stroke-width: 2; stroke-dasharray: 10; stroke: #000000" x1="301.488" y1="854.806" x2="566.371" y2="622.27"/>
    <polyline style="fill: none; fill-opacity:0; stroke-width: 2; stroke: #000000" points="563.835,631.15 568.052,620.795 557.238,623.635 "/>
  </g>
  <g>
    <line style="fill: none; fill-opacity:0; stroke-width: 2; stroke-dasharray: 10; stroke: #000000" x1="280.107" y1="711.121" x2="565.469" y2="620.671"/>
    <polyline style="fill: none; fill-opacity:0; stroke-width: 2; stroke: #000000" points="559.579,627.783 567.6,619.996 556.557,618.251 "/>
  </g>
  <g>
    <ellipse style="fill: #ffffff" cx="384.16" cy="235.736" rx="77.5" ry="32"/>
    <ellipse style="fill: none; fill-opacity:0; stroke-width: 2; stroke: #000000" cx="384.16" cy="235.736" rx="77.5" ry="32"/>
  </g>
  <g>
    <ellipse style="fill: #ffffff" cx="591.556" cy="315.978" rx="77.5" ry="32"/>
    <ellipse style="fill: none; fill-opacity:0; stroke-width: 2; stroke: #000000" cx="591.556" cy="315.978" rx="77.5" ry="32"/>
  </g>
  <text font-size="12.8" style="fill: #000000;text-anchor:middle;font-family:sans-serif;font-style:normal;font-weight:normal" x="384.16" y="232.186">
    <tspan x="384.16" y="232.186">Reserve</tspan>
    <tspan x="384.16" y="248.186">equipment</tspan>
  </text>
  <text font-size="12.8" style="fill: #000000;text-anchor:middle;font-family:sans-serif;font-style:normal;font-weight:normal" x="591.556" y="312.428">
    <tspan x="591.556" y="312.428">Reserve</tspan>
    <tspan x="591.556" y="328.428">employee</tspan>
  </text>
  <g>
    <line style="fill: none; fill-opacity:0; stroke-width: 2; stroke-dasharray: 10; stroke: #000000" x1="514.056" y1="315.978" x2="280.589" y2="417.495"/>
    <polyline style="fill: none; fill-opacity:0; stroke-width: 2; stroke: #000000" points="285.715,409.813 278.539,418.386 289.703,418.984 "/>
  </g>
  <g>
    <line style="fill: none; fill-opacity:0; stroke-width: 2; stroke-dasharray: 10; stroke: #000000" x1="329.358" y1="258.362" x2="224.278" y2="406.26"/>
    <polyline style="fill: none; fill-opacity:0; stroke-width: 2; stroke: #000000" points="224.699,397.035 222.983,408.083 232.851,402.827 "/>
  </g>
  <g>
    <line style="fill: none; fill-opacity:0; stroke-width: 2; stroke-dasharray: 10; stroke: #000000" x1="384.16" y1="267.736" x2="275.71" y2="510.844"/>
    <polyline style="fill: none; fill-opacity:0; stroke-width: 2; stroke: #000000" points="274.307,501.716 274.799,512.886 283.439,505.79 "/>
  </g>
  <g>
    <line style="fill: none; fill-opacity:0; stroke-width: 2; stroke-dasharray: 10; stroke: #000000" x1="536.756" y1="338.606" x2="277.602" y2="512.437"/>
    <polyline style="fill: none; fill-opacity:0; stroke-width: 2; stroke: #000000" points="281.265,503.959 275.745,513.682 286.835,512.264 "/>
  </g>
  <g>
    <ellipse style="fill: #ffffff" cx="776.248" cy="704.782" rx="6" ry="6"/>
    <ellipse style="fill: none; fill-opacity:0; stroke-width: 2; stroke: #000000" cx="776.248" cy="704.782" rx="6" ry="6"/>
    <line style="fill: none; fill-opacity:0; stroke-width: 2; stroke: #000000" x1="752.248" y1="716.782" x2="800.248" y2="716.782"/>
    <line style="fill: none; fill-opacity:0; stroke-width: 2; stroke: #000000" x1="776.248" y1="710.782" x2="776.248" y2="740.782"/>
    <line style="fill: none; fill-opacity:0; stroke-width: 2; stroke: #000000" x1="776.248" y1="740.782" x2="752.248" y2="766.782"/>
    <line style="fill: none; fill-opacity:0; stroke-width: 2; stroke: #000000" x1="776.248" y1="740.782" x2="800.248" y2="766.782"/>
    <text font-size="12.8" style="fill: #000000;text-anchor:middle;font-family:sans-serif;font-style:normal;font-weight:normal" x="776.248" y="790.682">
      <tspan x="776.248" y="790.682">Time</tspan>
    </text>
  </g>
  <g>
    <ellipse style="fill: #ffffff" cx="601.246" cy="741.196" rx="77.5" ry="32"/>
    <ellipse style="fill: none; fill-opacity:0; stroke-width: 2; stroke: #000000" cx="601.246" cy="741.196" rx="77.5" ry="32"/>
  </g>
  <text font-size="12.8" style="fill: #000000;text-anchor:middle;font-family:sans-serif;font-style:normal;font-weight:normal" x="601.246" y="737.646">
    <tspan x="601.246" y="737.646">Check</tspan>
    <tspan x="601.246" y="753.646">reservations</tspan>
  </text>
  <g>
    <line style="fill: none; fill-opacity:0; stroke-width: 2; stroke: #000000" x1="751.248" y1="740.782" x2="688.482" y2="741.14"/>
    <polygon style="fill: #000000" points="680.982,741.183 690.953,736.126 688.482,741.14 691.01,746.126 "/>
    <polygon style="fill: none; fill-opacity:0; stroke-width: 2; stroke: #000000" points="680.982,741.183 690.953,736.126 688.482,741.14 691.01,746.126 "/>
  </g>
  <g>
    <ellipse style="fill: #ffffff" cx="409.602" cy="985.078" rx="77.5" ry="32"/>
    <ellipse style="fill: none; fill-opacity:0; stroke-width: 2; stroke: #000000" cx="409.602" cy="985.078" rx="77.5" ry="32"/>
  </g>
  <text font-size="12.8" style="fill: #000000;text-anchor:middle;font-family:sans-serif;font-style:normal;font-weight:normal" x="409.602" y="981.528">
    <tspan x="409.602" y="981.528">Search</tspan>
    <tspan x="409.602" y="997.528">employees</tspan>
  </text>
  <g>
    <line style="fill: none; fill-opacity:0; stroke-width: 2; stroke-dasharray: 10; stroke: #000000" x1="524.008" y1="956.018" x2="490.616" y2="982.311"/>
    <polyline style="fill: none; fill-opacity:0; stroke-width: 2; stroke: #000000" points="493.622,973.58 488.859,983.695 499.809,981.437 "/>
  </g>
  <g>
    <ellipse style="fill: #ffffff" cx="544.472" cy="868.108" rx="77.5" ry="32"/>
    <ellipse style="fill: none; fill-opacity:0; stroke-width: 2; stroke: #000000" cx="544.472" cy="868.108" rx="77.5" ry="32"/>
  </g>
  <g>
    <line style="fill: none; fill-opacity:0; stroke-width: 2; stroke-dasharray: 10; stroke: #000000" x1="544.472" y1="836.108" x2="546.322" y2="768.294"/>
    <polyline style="fill: none; fill-opacity:0; stroke-width: 2; stroke: #000000" points="551.108,776.192 546.383,766.059 541.112,775.919 "/>
  </g>
  <text font-size="12.8" style="fill: #000000;text-anchor:middle;font-family:sans-serif;font-style:normal;font-weight:normal" x="544.472" y="864.558">
    <tspan x="544.472" y="864.558">Notify</tspan>
    <tspan x="544.472" y="880.558">secretary</tspan>
  </text>
  <text font-size="12.8" style="fill: #000000;text-anchor:start;font-family:sans-serif;font-style:normal;font-weight:normal" x="552.072" y="807.622">
    <tspan x="552.072" y="807.622">&lt;&lt;extend&gt;&gt;</tspan>
  </text>
  <text font-size="12.8" style="fill: #000000;text-anchor:start;font-family:sans-serif;font-style:normal;font-weight:normal" x="205.274" y="302.292">
    <tspan x="205.274" y="302.292">&lt;&lt;extend&gt;&gt;</tspan>
  </text>
  <text font-size="12.8" style="fill: #000000;text-anchor:start;font-family:sans-serif;font-style:normal;font-weight:normal" x="382.562" y="292.468">
    <tspan x="382.562" y="292.468">&lt;&lt;extend&gt;&gt;</tspan>
  </text>
  <text font-size="12.8" style="fill: #000000;text-anchor:start;font-family:sans-serif;font-style:normal;font-weight:normal" x="350.71" y="394.854">
    <tspan x="350.71" y="394.854">&lt;&lt;extend&gt;&gt;</tspan>
  </text>
  <text font-size="12.8" style="fill: #000000;text-anchor:start;font-family:sans-serif;font-style:normal;font-weight:normal" x="459.27" y="404.996">
    <tspan x="459.27" y="404.996">&lt;&lt;extend&gt;&gt;</tspan>
  </text>
  <text font-size="12.8" style="fill: #000000;text-anchor:start;font-family:sans-serif;font-style:normal;font-weight:normal" x="193.885" y="603.706">
    <tspan x="193.885" y="603.706">&lt;&lt;extend&gt;&gt;</tspan>
  </text>
  <text font-size="12.8" style="fill: #000000;text-anchor:start;font-family:sans-serif;font-style:normal;font-weight:normal" x="402.474" y="482.564">
    <tspan x="402.474" y="482.564">&lt;&lt;include&gt;&gt;</tspan>
  </text>
  <text font-size="12.8" style="fill: #000000;text-anchor:start;font-family:sans-serif;font-style:normal;font-weight:normal" x="341.416" y="542.636">
    <tspan x="341.416" y="542.636">&lt;&lt;include&gt;&gt;</tspan>
  </text>
  <text font-size="12.8" style="fill: #000000;text-anchor:start;font-family:sans-serif;font-style:normal;font-weight:normal" x="304.758" y="714.12">
    <tspan x="304.758" y="714.12">&lt;&lt;include&gt;&gt;</tspan>
  </text>
  <text font-size="12.8" style="fill: #000000;text-anchor:start;font-family:sans-serif;font-style:normal;font-weight:normal" x="323.386" y="851.594">
    <tspan x="323.386" y="851.594">&lt;&lt;include&gt;&gt;</tspan>
  </text>
  <text font-size="12.8" style="fill: #000000;text-anchor:start;font-family:sans-serif;font-style:normal;font-weight:normal" x="490.844" y="998.492">
    <tspan x="490.844" y="998.492">&lt;&lt;include&gt;&gt;</tspan>
  </text>
  <g>
    <line style="fill: none; fill-opacity:0; stroke-width: 2; stroke-dasharray: 10; stroke: #000000" x1="601.246" y1="709.196" x2="623.289" y2="632.988"/>
    <polyline style="fill: none; fill-opacity:0; stroke-width: 2; stroke: #000000" points="625.935,641.836 623.911,630.84 616.329,639.057 "/>
  </g>
  <text font-size="12.8" style="fill: #000000;text-anchor:start;font-family:sans-serif;font-style:normal;font-weight:normal" x="618.236" y="686.752">
    <tspan x="618.236" y="686.752">&lt;&lt;include&gt;&gt;</tspan>
  </text>
  <g>
    <line style="fill: none; fill-opacity:0; stroke-width: 2; stroke-dasharray: 10; stroke: #000000" x1="591.556" y1="347.978" x2="410.89" y2="948.795"/>
    <polyline style="fill: none; fill-opacity:0; stroke-width: 2; stroke: #000000" points="408.337,939.92 410.246,950.937 417.914,942.8 "/>
  </g>
  <text font-size="12.8" style="fill: #000000;text-anchor:start;font-family:sans-serif;font-style:normal;font-weight:normal" x="566.9" y="462.9">
    <tspan x="566.9" y="462.9">&lt;&lt;include&gt;&gt;</tspan>
  </text>
</svg>
